grf
version=1
nRows=42
nColumns=19
inDegrees=yes
endheader
time	ground_force_1_vx	ground_force_1_vy	ground_force_1_vz	ground_force_1_px	ground_force_1_py	ground_force_1_pz	ground_moment_1_mx	ground_moment_1_my	ground_moment_1_mz	ground_force_2_vx	ground_force_2_vy	ground_force_2_vz	ground_force_2_px	ground_force_2_py	ground_force_2_pz	ground_moment_2_mx	ground_moment_2_my	ground_moment_2_mz
0.000000	-13.771493	423.063002	-39.636570	0.145012	0.000000	-1.058848	0.000000	1.930754	0.000000	-13.188473	390.050225	41.037328	0.159900	0.000000	-1.409367	0.000000	-1.481366	0.000000
0.001000	-13.753816	422.935281	-39.594343	0.144954	0.000000	-1.058851	0.000000	1.920268	0.000000	-13.122223	389.990653	40.966885	0.159945	0.000000	-1.409430	0.000000	-1.475360	0.000000
0.002000	-13.735405	422.806489	-39.551132	0.144904	0.000000	-1.058867	-0.000000	1.909509	0.000000	-13.054389	389.923371	40.893960	0.159978	0.000000	-1.409482	0.000000	-1.469149	0.000000
0.003000	-13.716315	422.677639	-39.507187	0.144860	0.000000	-1.058896	-0.000000	1.898539	0.000000	-12.985399	389.847867	40.818884	0.159996	0.000000	-1.409523	0.000000	-1.462752	0.000000
0.004000	-13.696597	422.549739	-39.462744	0.144821	0.000000	-1.058936	-0.000000	1.887420	0.000000	-12.915693	389.763648	40.742004	0.159999	0.000000	-1.409554	0.000000	-1.456190	0.000000
0.005000	-13.676297	422.423762	-39.418025	0.144786	0.000000	-1.058984	-0.000000	1.876218	0.000000	-12.845718	389.670258	40.663682	0.159987	0.000000	-1.409575	0.000000	-1.449477	0.000000
0.006000	-13.655457	422.300631	-39.373229	0.144753	0.000000	-1.059037	-0.000000	1.864995	0.000000	-12.775922	389.567284	40.584287	0.159961	0.000000	-1.409588	0.000000	-1.442626	0.000000
0.007000	-13.634108	422.181201	-39.328533	0.144721	0.000000	-1.059093	-0.000000	1.853817	0.000000	-12.706750	389.454369	40.504191	0.159921	0.000000	-1.409593	0.000000	-1.435643	0.000000
0.008000	-13.612277	422.066233	-39.284085	0.144689	0.000000	-1.059148	-0.000000	1.842743	0.000000	-12.638639	389.331225	40.423765	0.159869	0.000000	-1.409591	0.000000	-1.428530	0.000000
0.009000	-13.589979	421.956390	-39.240011	0.144656	0.000000	-1.059199	-0.000000	1.831831	0.000000	-12.572015	389.197635	40.343372	0.159806	0.000000	-1.409584	0.000000	-1.421282	0.000000
0.010000	-13.567225	421.852215	-39.196414	0.144620	0.000000	-1.059243	-0.000000	1.821133	0.000000	-12.507285	389.053473	40.263366	0.159735	0.000000	-1.409573	0.000000	-1.413893	0.000000
0.011000	-13.544013	421.754133	-39.153374	0.144582	0.000000	-1.059278	-0.000000	1.810699	0.000000	-12.444836	388.898709	40.184083	0.159657	0.000000	-1.409559	0.000000	-1.406352	0.000000
0.012000	-13.520336	421.662443	-39.110956	0.144541	0.000000	-1.059305	-0.000000	1.800568	0.000000	-12.385029	388.733419	40.105842	0.159574	0.000000	-1.409544	0.000000	-1.398645	-0.000000
0.013000	-13.496179	421.577319	-39.069207	0.144496	0.000000	-1.059323	-0.000000	1.790775	0.000000	-12.328197	388.557796	40.028938	0.159490	0.000000	-1.409526	0.000000	-1.390756	-0.000000
0.014000	-13.471517	421.498822	-39.028166	0.144448	0.000000	-1.059334	-0.000000	1.781349	0.000000	-12.274636	388.372160	39.953644	0.159405	0.000000	-1.409508	0.000000	-1.382671	-0.000000
0.015000	-13.446319	421.426905	-38.987863	0.144395	0.000000	-1.059342	-0.000000	1.772312	0.000000	-12.224606	388.176966	39.880204	0.159322	0.000000	-1.409489	0.000000	-1.374377	-0.000000
0.016000	-13.420545	421.361434	-38.948323	0.144339	0.000000	-1.059349	-0.000000	1.763677	0.000000	-12.178322	387.972806	39.808836	0.159243	0.000000	-1.409468	0.000000	-1.365863	-0.000000
0.017000	-13.394150	421.302198	-38.909568	0.144279	0.000000	-1.059361	0.000000	1.755455	0.000000	-12.135953	387.760421	39.739733	0.159168	0.000000	-1.409445	0.000000	-1.357124	-0.000000
0.018000	-13.367078	421.248932	-38.871619	0.144214	0.000000	-1.059379	0.000000	1.747647	0.000000	-12.097617	387.540697	39.673059	0.159100	0.000000	-1.409419	0.000000	-1.348159	-0.000000
0.019000	-13.339269	421.201332	-38.834500	0.144145	0.000000	-1.059409	0.000000	1.740253	0.000000	-12.063378	387.314663	39.608951	0.159037	0.000000	-1.409388	0.000000	-1.338977	-0.000000
0.020000	-13.310653	421.159074	-38.798232	0.144072	0.000000	-1.059452	0.000000	1.733266	0.000000	-12.033246	387.083492	39.547523	0.158981	0.000000	-1.409353	0.000000	-1.329590	-0.000000
0.021000	-13.281156	421.121826	-38.762838	0.143996	0.000000	-1.059509	0.000000	1.726677	0.000000	-12.007170	386.848485	39.488862	0.158932	0.000000	-1.409311	0.000000	-1.320021	-0.000000
0.022000	-13.250695	421.089262	-38.728340	0.143917	0.000000	-1.059583	0.000000	1.720473	0.000000	-11.985045	386.611063	39.433036	0.158889	0.000000	-1.409262	0.000000	-1.310300	-0.000000
0.023000	-13.219179	421.061062	-38.694756	0.143836	0.000000	-1.059672	0.000000	1.714638	0.000000	-11.966706	386.372750	39.380088	0.158851	0.000000	-1.409207	-0.000000	-1.300463	-0.000000
0.024000	-13.186512	421.036922	-38.662102	0.143753	0.000000	-1.059774	0.000000	1.709155	0.000000	-11.951935	386.135147	39.330043	0.158817	0.000000	-1.409145	-0.000000	-1.290555	-0.000000
0.025000	-13.152591	421.016543	-38.630384	0.143670	0.000000	-1.059885	-0.000000	1.704003	0.000000	-11.940461	385.899916	39.282908	0.158786	0.000000	-1.409076	-0.000000	-1.280623	-0.000000
0.026000	-13.117308	420.999629	-38.599598	0.143588	0.000000	-1.060003	-0.000000	1.699162	0.000000	-11.931965	385.668751	39.238672	0.158757	0.000000	-1.409003	-0.000000	-1.270718	-0.000000
0.027000	-13.080550	420.985870	-38.569726	0.143507	0.000000	-1.060121	-0.000000	1.694608	0.000000	-11.926085	385.443349	39.197308	0.158729	0.000000	-1.408926	-0.000000	-1.260895	-0.000000
0.028000	-13.042199	420.974934	-38.540734	0.143428	0.000000	-1.060236	-0.000000	1.690316	0.000000	-11.922424	385.225387	39.158776	0.158699	0.000000	-1.408846	-0.000000	-1.251206	-0.000000
0.029000	-13.002137	420.966443	-38.512571	0.143352	0.000000	-1.060340	-0.000000	1.686260	0.000000	-11.920554	385.016489	39.123023	0.158667	0.000000	-1.408766	-0.000000	-1.241703	-0.000000
0.030000	-12.960244	420.959963	-38.485160	0.143278	0.000000	-1.060430	-0.000000	1.682410	0.000000	-11.920025	384.818204	39.089982	0.158631	0.000000	-1.408689	-0.000000	-1.232432	-0.000000
0.031000	-12.916405	420.954981	-38.458407	0.143207	0.000000	-1.060499	-0.000000	1.678736	0.000000	-11.920372	384.631980	39.059579	0.158591	0.000000	-1.408615	-0.000000	-1.223434	-0.000000
0.032000	-12.870507	420.950893	-38.432191	0.143139	0.000000	-1.060545	-0.000000	1.675204	0.000000	-11.921123	384.459143	39.031728	0.158545	0.000000	-1.408548	-0.000000	-1.214745	-0.000000
0.033000	-12.822445	420.946991	-38.406368	0.143073	0.000000	-1.060564	-0.000000	1.671778	0.000000	-11.921807	384.300879	39.006336	0.158492	0.000000	-1.408488	-0.000000	-1.206389	-0.000000
0.034000	-12.772127	420.942458	-38.380775	0.143007	0.000000	-1.060555	-0.000000	1.668421	0.000000	-11.921960	384.158221	38.983304	0.158434	0.000000	-1.408439	-0.000000	-1.198383	-0.000000
0.035000	-12.719473	420.936360	-38.355226	0.142942	0.000000	-1.060519	-0.000000	1.665093	0.000000	-11.921135	384.032038	38.962526	0.158369	0.000000	-1.408401	-0.000000	-1.190732	-0.000000
0.036000	-12.664420	420.927659	-38.329520	0.142877	0.000000	-1.060457	-0.000000	1.661750	0.000000	-11.918908	383.923026	38.943891	0.158297	0.000000	-1.408375	-0.000000	-1.183434	-0.000000
0.037000	-12.606927	420.915213	-38.303440	0.142809	0.000000	-1.060372	-0.000000	1.658348	0.000000	-11.914881	383.831709	38.927283	0.158220	0.000000	-1.408361	-0.000000	-1.176473	-0.000000
0.038000	-12.546973	420.897802	-38.276763	0.142737	0.000000	-1.060270	-0.000000	1.654843	0.000000	-11.908694	383.758435	38.912584	0.158138	0.000000	-1.408360	-0.000000	-1.169829	-0.000000
0.039000	-12.484565	420.874142	-38.249258	0.142660	0.000000	-1.060157	-0.000000	1.651187	0.000000	-11.900022	383.703380	38.899674	0.158053	0.000000	-1.408371	-0.000000	-1.163470	-0.000000
0.040000	-12.419736	420.842918	-38.220694	0.142577	0.000000	-1.060039	-0.000000	1.647335	0.000000	-11.888585	383.666554	38.888427	0.157965	0.000000	-1.408394	-0.000000	-1.157357	-0.000000
0.041000	-12.352546	420.802814	-38.190847	0.142485	0.000000	-1.059923	-0.000000	1.643238	0.000000	-11.874146	383.647804	38.878721	0.157877	0.000000	-1.408426	-0.000000	-1.151447	-0.000000
